# xmcd CD Database Entry
#
# Track frame offsets:
# 150
# 5175
# 46445
# 55360
# 69557
# 92335
# 109102
# 126692
# 146085
# 162840
# 187132
#
# Disc length: 2840 seconds
#
# Revision: 3
# Processed by: cddbd v1.4b41PL1 Copyright (c) Steve Scherf et al.
# Submitted via: tcd 2.0b
#
DISCID=a60b160b
DTITLE=Messa da requiem
DYEAR=1900
DGENRE=
TTITLE0=Maria's Kalas Voice
TTITLE1=Requiem
TTITLE2=Tuba mirum
TTITLE3=Dies irae
TTITLE4=Liber scriptus
TTITLE5=Quid sum miser
TTITLE6=Rex tremendae
TTITLE7=Recordare
TTITLE8=Ingemisco
TTITLE9=Confutatis
TTITLE10=Lacrymosa
EXTD=Giuseppe verdi\t
EXTT0=
EXTT1=
EXTT2=
EXTT3=
EXTT4=
EXTT5=
EXTT6=
EXTT7=
EXTT8=
EXTT9=
EXTT10=
PLAYORDER=
